<svg width="961" height="693" viewBox="0 0 961 693" fill="none" xmlns="http://www.w3.org/2000/svg">
<path fill-rule="evenodd" clip-rule="evenodd" d="M474.578 693H0V0H477.987C404.47 0.100037 330.429 3.13275 250.643 9.15973C107.19 19.9962 0.030304 142.926 0.030304 286.789V405.434C0.030304 544.178 99.7874 664.912 237.739 679.721C320.192 688.573 397.103 693 474.578 693ZM961 403.75C961 543.237 860.178 664.19 721.481 679.01C634.185 688.338 554.084 693 474.578 693H961V403.75ZM961 286.708C961 142.88 853.938 19.9156 710.521 9.05713C632.367 3.13989 559.113 0.10022 485.512 0H961V286.708Z" fill="black"/>
</svg>
