<svg width="131" height="80" viewBox="0 0 131 80" fill="none" xmlns="http://www.w3.org/2000/svg">
<path d="M10.1917 44.4489C11.1124 44.4489 11.8635 44.3196 12.445 44.0609C13.0507 43.7786 13.511 43.4141 13.826 42.9672C14.1652 42.4969 14.3954 41.9677 14.5165 41.3797C14.6376 40.7683 14.6982 40.145 14.6982 39.51V38.875H19.4954V39.51C19.4954 42.4498 18.6959 44.7194 17.0968 46.3186C15.522 47.8944 13.2203 48.6822 10.1917 48.6822C7.28434 48.6822 4.98264 47.8238 3.28665 46.107C1.59067 44.3901 0.742676 41.8854 0.742676 38.5928V33.0895C0.742676 31.5137 0.960731 30.1026 1.39684 28.8561C1.83295 27.5861 2.46289 26.5278 3.28665 25.6811C4.11042 24.8109 5.10378 24.1524 6.26674 23.7056C7.42971 23.2352 8.73804 23 10.1917 23C11.6939 23 13.0265 23.2117 14.1894 23.635C15.3524 24.0583 16.3215 24.6698 17.0968 25.4694C17.8964 26.2691 18.49 27.2333 18.8776 28.3622C19.2895 29.4911 19.4954 30.7611 19.4954 32.1722V32.8072H14.6982V32.1722C14.6982 31.5843 14.6255 30.9963 14.4802 30.4083C14.3348 29.8204 14.0925 29.2912 13.7533 28.8208C13.4141 28.3505 12.9538 27.9742 12.3723 27.6919C11.7908 27.3862 11.064 27.2333 10.1917 27.2333C9.39221 27.2333 8.7017 27.3862 8.12022 27.6919C7.53873 27.9742 7.05417 28.374 6.66651 28.8914C6.27886 29.3853 5.98812 29.9732 5.79429 30.6553C5.62469 31.3138 5.53989 32.0076 5.53989 32.7367V38.9456C5.53989 39.7452 5.62469 40.486 5.79429 41.1681C5.96389 41.8266 6.2304 42.4028 6.59383 42.8967C6.95725 43.3906 7.42971 43.7786 8.01119 44.0609C8.6169 44.3196 9.34375 44.4489 10.1917 44.4489Z" fill="#F2F2F2"/>
<path d="M22.9954 33.0895C22.9954 29.8909 23.8192 27.4097 25.4667 25.6458C27.1384 23.8819 29.4401 23 32.3718 23C35.3034 23 37.593 23.8819 39.2405 25.6458C40.9123 27.4097 41.7482 29.8909 41.7482 33.0895V38.5928C41.7482 41.8854 40.9123 44.3901 39.2405 46.107C37.593 47.8238 35.3034 48.6822 32.3718 48.6822C29.4401 48.6822 27.1384 47.8238 25.4667 46.107C23.8192 44.3901 22.9954 41.8854 22.9954 38.5928V33.0895ZM32.3718 44.4489C33.244 44.4489 33.9708 44.3196 34.5523 44.0609C35.1338 43.7786 35.6063 43.3906 35.9697 42.8967C36.3331 42.4028 36.5875 41.8148 36.7329 41.1328C36.8783 40.4508 36.9509 39.6982 36.9509 38.875V32.8072C36.9509 32.0311 36.8661 31.302 36.6965 30.62C36.5269 29.938 36.2604 29.35 35.897 28.8561C35.5336 28.3622 35.0611 27.9742 34.4796 27.6919C33.8982 27.3862 33.1955 27.2333 32.3718 27.2333C31.548 27.2333 30.8454 27.3862 30.2639 27.6919C29.6824 27.9742 29.21 28.3622 28.8465 28.8561C28.4831 29.35 28.2166 29.938 28.047 30.62C27.8774 31.302 27.7926 32.0311 27.7926 32.8072V38.875C27.7926 39.6982 27.8653 40.4508 28.0107 41.1328C28.156 41.8148 28.4104 42.4028 28.7739 42.8967C29.1373 43.3906 29.6097 43.7786 30.1912 44.0609C30.7727 44.3196 31.4996 44.4489 32.3718 44.4489Z" fill="#F2F2F2"/>
<path d="M58.9856 31.0433C58.9856 30.0556 58.5858 29.1971 57.7863 28.4681C57.011 27.739 55.9086 27.3744 54.4791 27.3744C53.2677 27.3744 52.3107 27.6214 51.6081 28.1153C50.9054 28.5857 50.5541 29.2324 50.5541 30.0556C50.5541 30.4789 50.6389 30.867 50.8085 31.2197C50.9781 31.549 51.2689 31.8547 51.6807 32.137C52.1169 32.3957 52.6741 32.6308 53.3525 32.8425C54.0551 33.0542 54.9395 33.2541 56.0055 33.4422C58.6706 33.9126 60.7058 34.7005 62.1111 35.8058C63.5163 36.9112 64.2189 38.5458 64.2189 40.7095V41.1328C64.2189 42.2852 64.0009 43.3318 63.5648 44.2725C63.1529 45.1897 62.5472 45.9776 61.7476 46.6361C60.9481 47.2947 59.979 47.8003 58.8402 48.1531C57.7015 48.5059 56.4174 48.6822 54.9879 48.6822C53.3162 48.6822 51.8382 48.4588 50.5541 48.012C49.2943 47.5416 48.2403 46.9066 47.3923 46.107C46.5443 45.2838 45.9023 44.3313 45.4662 43.2495C45.0301 42.1441 44.812 40.9446 44.812 39.6511V38.5928H49.6092V39.4395C49.6092 40.9211 50.0453 42.1088 50.9176 43.0025C51.814 43.8727 53.195 44.3078 55.0606 44.3078C56.5143 44.3078 57.5925 44.0021 58.2951 43.3906C58.9977 42.7791 59.349 42.05 59.349 41.2034C59.349 40.8035 59.2763 40.4272 59.131 40.0745C58.9856 39.6982 58.7312 39.3689 58.3678 39.0867C58.0044 38.7809 57.5077 38.5105 56.8777 38.2753C56.2478 38.0401 55.4483 37.8402 54.4791 37.6756C53.195 37.4639 52.0199 37.1934 50.9539 36.8642C49.8878 36.5114 48.9551 36.0528 48.1555 35.4883C47.3802 34.9239 46.7745 34.2183 46.3384 33.3717C45.9023 32.525 45.6842 31.4902 45.6842 30.2672V30.0556C45.6842 29.0443 45.8902 28.1153 46.302 27.2686C46.7382 26.3984 47.3318 25.6458 48.0828 25.0108C48.8581 24.3758 49.7788 23.8819 50.8449 23.5292C51.9351 23.1764 53.1466 23 54.4791 23C55.9813 23 57.3138 23.2117 58.4768 23.635C59.6398 24.0348 60.6089 24.5875 61.3842 25.2931C62.1837 25.9986 62.7773 26.81 63.165 27.7272C63.5769 28.6445 63.7828 29.6087 63.7828 30.62V31.89H58.9856V31.0433Z" fill="#F2F2F2"/>
<path d="M66.5559 23.4939H74.9874L76.4411 42.05V45.6484H77.3133V42.05L78.767 23.4939H87.1985V48.1884H82.8374V31.6783L83.2735 26.0339H82.4013L80.5115 48.1884H73.3156L71.3531 26.0339H70.4809L70.917 31.6783V48.1884H66.5559V23.4939Z" fill="#F2F2F2"/>
<path d="M90.6258 23.4939H107.634V27.9389H101.529V43.7434H107.634V48.1884H90.6258V43.7434H96.7313V27.9389H90.6258V23.4939Z" fill="#F2F2F2"/>
<path d="M121.455 44.4489C122.376 44.4489 123.127 44.3196 123.709 44.0609C124.314 43.7786 124.775 43.4141 125.09 42.9672C125.429 42.4969 125.659 41.9677 125.78 41.3797C125.901 40.7683 125.962 40.145 125.962 39.51V38.875H130.759V39.51C130.759 42.4498 129.959 44.7194 128.36 46.3186C126.786 47.8944 124.484 48.6822 121.455 48.6822C118.548 48.6822 116.246 47.8238 114.55 46.107C112.854 44.3901 112.006 41.8854 112.006 38.5928V33.0895C112.006 31.5137 112.224 30.1026 112.66 28.8561C113.097 27.5861 113.726 26.5278 114.55 25.6811C115.374 24.8109 116.367 24.1524 117.53 23.7056C118.693 23.2352 120.002 23 121.455 23C122.957 23 124.29 23.2117 125.453 23.635C126.616 24.0583 127.585 24.6698 128.36 25.4694C129.16 26.2691 129.754 27.2333 130.141 28.3622C130.553 29.4911 130.759 30.7611 130.759 32.1722V32.8072H125.962V32.1722C125.962 31.5843 125.889 30.9963 125.744 30.4083C125.598 29.8204 125.356 29.2912 125.017 28.8208C124.678 28.3505 124.217 27.9742 123.636 27.6919C123.054 27.3862 122.328 27.2333 121.455 27.2333C120.656 27.2333 119.965 27.3862 119.384 27.6919C118.802 27.9742 118.318 28.374 117.93 28.8914C117.542 29.3853 117.252 29.9732 117.058 30.6553C116.888 31.3138 116.803 32.0076 116.803 32.7367V38.9456C116.803 39.7452 116.888 40.486 117.058 41.1681C117.227 41.8266 117.494 42.4028 117.857 42.8967C118.221 43.3906 118.693 43.7786 119.275 44.0609C119.88 44.3196 120.607 44.4489 121.455 44.4489Z" fill="#F2F2F2"/>
<path fill-rule="evenodd" clip-rule="evenodd" d="M13.7758 58.3532L13.773 58.3505C13.1241 57.7213 12.1712 57.3726 10.839 57.3726C9.7014 57.3726 8.8671 57.6122 8.2831 58.0355L8.27843 58.0389L8.27369 58.0421C7.71083 58.4307 7.44416 58.9388 7.44416 59.6151C7.44416 59.9789 7.51388 60.3008 7.64672 60.5882C7.76704 60.826 7.985 61.0751 8.33685 61.3261C8.72329 61.5603 9.23151 61.7831 9.87168 61.9892C10.5427 62.1975 11.3983 62.3976 12.4437 62.5878C15.1338 63.0774 17.2449 63.9064 18.7296 65.1106C20.2689 66.359 21.0074 68.1918 21.0074 70.5188V70.9521C21.0074 72.1931 20.7796 73.3346 20.3152 74.3686C19.8753 75.3776 19.2277 76.2449 18.3776 76.9668C17.527 77.6892 16.5045 78.2363 15.32 78.6147C14.132 78.9942 12.8047 79.18 11.344 79.18C9.63958 79.18 8.11356 78.9452 6.77408 78.4646L6.76866 78.4627L6.7633 78.4606C5.45854 77.9583 4.35237 77.2744 3.45574 76.4026L3.45314 76.4001L3.45057 76.3975C2.56011 75.5062 1.88454 74.4729 1.42643 73.3011L1.42577 73.2994L1.42512 73.2977C0.968395 72.1041 0.742676 70.8151 0.742676 69.4357V67.8511H6.50627V69.219C6.50627 70.6319 6.9057 71.7131 7.66288 72.5158C8.42259 73.2729 9.63862 73.7001 11.4161 73.7001C12.7998 73.7001 13.7253 73.3981 14.2922 72.8894C14.8933 72.35 15.1717 71.7357 15.1717 71.0243C15.1717 70.6755 15.1105 70.3539 14.9911 70.0552L14.9891 70.0501L14.9872 70.045C14.8784 69.7546 14.685 69.4891 14.3858 69.2496L14.3781 69.2434L14.3706 69.2369C14.0676 68.9741 13.6311 68.7232 13.0399 68.4956C12.4554 68.2706 11.6963 68.0731 10.7537 67.9079C9.46028 67.688 8.2713 67.4062 7.18804 67.0612L7.18314 67.0597L7.17828 67.058C6.07911 66.683 5.10711 66.1919 4.26768 65.5808L4.2647 65.5787L4.26175 65.5764C3.42958 64.9518 2.77805 64.1689 2.31062 63.2332C1.83432 62.2798 1.60842 61.1393 1.60842 59.8317V59.6151C1.60842 58.5121 1.82674 57.4874 2.26962 56.5487L2.27086 56.5461L2.27213 56.5434C2.73441 55.5924 3.36489 54.7681 4.16116 54.0739L4.16413 54.0714L4.16713 54.0688C4.98931 53.3745 5.95942 52.84 7.07007 52.461L7.07329 52.4599C8.21397 52.0794 9.47088 51.8926 10.839 51.8926C12.376 51.8926 13.7586 52.1156 14.9785 52.5728C16.1844 53.0009 17.2066 53.5982 18.0326 54.3725C18.8752 55.1398 19.5076 56.0284 19.9218 57.0368C20.357 58.0379 20.5746 59.0914 20.5746 60.1928V61.994H14.811V60.626C14.811 59.7651 14.4801 59.0155 13.7786 58.3559L13.7758 58.3532ZM19.4603 57.2322C19.0756 56.2934 18.4864 55.463 17.6928 54.7409C16.9232 54.0188 15.9613 53.4532 14.807 53.044C13.6526 52.6107 12.33 52.3941 10.839 52.3941C9.51632 52.3941 8.3139 52.5746 7.23173 52.9357C6.1736 53.2967 5.25976 53.8022 4.49021 54.4521C3.74471 55.102 3.15553 55.8722 2.72266 56.7628C2.31384 57.6293 2.10942 58.5801 2.10942 59.6151V59.8317C2.10942 61.0834 2.32586 62.1425 2.75873 63.009C3.1916 63.8755 3.79281 64.5976 4.56236 65.1753C5.35596 65.753 6.28182 66.2223 7.33995 66.5834C8.39807 66.9204 9.56442 67.1972 10.839 67.4138C11.8009 67.5823 12.5945 67.7869 13.2198 68.0276C13.845 68.2683 14.338 68.5451 14.6987 68.858C15.0595 69.1468 15.312 69.4838 15.4563 69.8689C15.6006 70.23 15.6727 70.6151 15.6727 71.0243C15.6727 71.8908 15.324 72.637 14.6266 73.2628C13.9292 73.8886 12.859 74.2015 11.4161 74.2015C9.56442 74.2015 8.19366 73.7562 7.30387 72.8657C6.43813 71.951 6.00526 70.7355 6.00526 69.219V68.3525H1.24368V69.4357C1.24368 70.7595 1.46012 71.9871 1.89299 73.1184C2.32586 74.2256 2.96314 75.2004 3.80484 76.0429C4.64653 76.8613 5.69263 77.5112 6.94315 77.9926C8.21771 78.4499 9.68466 78.6786 11.344 78.6786C12.7629 78.6786 14.0374 78.498 15.1677 78.137C16.298 77.7759 17.2599 77.2584 18.0535 76.5845C18.8471 75.9105 19.4483 75.1042 19.8571 74.1654C20.29 73.2026 20.5064 72.1315 20.5064 70.9521V70.5188C20.5064 68.3044 19.809 66.6315 18.4142 65.5002C17.0194 64.3689 14.9994 63.5626 12.354 63.0812C11.2959 62.8886 10.4181 62.684 9.72073 62.4674C9.04738 62.2508 8.49427 62.0101 8.0614 61.7453C7.65257 61.4565 7.36399 61.1436 7.19566 60.8066C7.02732 60.4455 6.94315 60.0484 6.94315 59.6151C6.94315 58.7727 7.29185 58.1107 7.98925 57.6293C8.68665 57.1239 9.63656 56.8711 10.839 56.8711C12.2578 56.8711 13.352 57.2442 14.1216 57.9904C14.9152 58.7366 15.312 59.6151 15.312 60.626V61.4926H20.0736V60.1928C20.0736 59.1578 19.8691 58.1709 19.4603 57.2322ZM42.662 52.3981V69.4357C42.662 72.4134 41.8669 74.8119 40.2183 76.5659C38.5788 78.336 36.1646 79.18 33.0707 79.18C29.9752 79.18 27.5508 78.3353 25.8881 76.5671L25.8868 76.5657L25.8854 76.5642C24.2616 74.81 23.4794 72.4121 23.4794 69.4357V52.3981H29.243V69.4357C29.243 70.8536 29.5741 71.8934 30.1739 72.6179C30.7447 73.3075 31.6715 73.7001 33.0707 73.7001C34.4699 73.7001 35.3966 73.3075 35.9675 72.6179C36.5672 71.8934 36.8984 70.8536 36.8984 69.4357V52.3981H42.662ZM39.8523 76.2234C41.3914 74.5867 42.161 72.3241 42.161 69.4357V52.8996H37.3994V69.4357C37.3994 70.928 37.0507 72.0954 36.3533 72.9379C35.6559 73.7803 34.5617 74.2015 33.0707 74.2015C31.5797 74.2015 30.4855 73.7803 29.7881 72.9379C29.0907 72.0954 28.742 70.928 28.742 69.4357V52.8996H23.9804V69.4357C23.9804 72.3241 24.7379 74.5867 26.253 76.2234C27.7921 77.8602 30.0646 78.6786 33.0707 78.6786C36.0767 78.6786 38.3373 77.8602 39.8523 76.2234ZM64.2083 78.6746H58.4447V70.591C58.4447 70.1076 58.3161 69.7631 58.0981 69.5114L58.0917 69.5039L58.0855 69.4962C57.9324 69.3047 57.6223 69.1428 56.9978 69.1428H52.0157V78.6746H46.2521V52.3981H56.4206C57.7645 52.3981 58.9672 52.5848 60.0196 52.9702C61.061 53.3516 61.9415 53.8912 62.6481 54.5964C63.3702 55.2692 63.915 56.0611 64.2784 56.9682C64.6656 57.8745 64.8576 58.8428 64.8576 59.8678V60.7344C64.8576 61.864 64.5543 62.9283 63.9555 63.9185L63.954 63.9211L63.9524 63.9236C63.4119 64.794 62.6221 65.4745 61.6089 65.9751C62.2931 66.1497 62.8722 66.49 63.3238 67.008C63.9209 67.6649 64.2083 68.487 64.2083 69.4357V78.6746ZM62.9497 67.3416C62.4688 66.788 61.8074 66.463 60.9657 66.3667V65.7169C62.1201 65.2355 62.9738 64.5495 63.5269 63.6589C64.08 62.7442 64.3566 61.7694 64.3566 60.7344V59.8678C64.3566 58.905 64.1762 58.0024 63.8155 57.16C63.4788 56.3175 62.9738 55.5834 62.3004 54.9576C61.6511 54.3077 60.8335 53.8022 59.8475 53.4411C58.8615 53.0801 57.7192 52.8996 56.4206 52.8996H46.7532V78.1731H51.5147V68.6414H56.9978C57.6952 68.6414 58.1882 68.8219 58.4767 69.1829C58.7894 69.544 58.9457 70.0134 58.9457 70.591V78.1731H63.7073V69.4357C63.7073 68.5932 63.4548 67.8952 62.9497 67.3416ZM58.3354 58.7386L58.332 58.7351C57.8535 58.237 57.1248 57.9503 56.0599 57.9503H52.0157V63.5907H56.0599C57.1422 63.5907 57.8813 63.3426 58.358 62.925C58.8325 62.486 59.094 61.8627 59.094 60.9871V60.5538C59.094 59.8459 58.8472 59.2509 58.3389 58.7421L58.3354 58.7386ZM58.6932 63.2978C58.092 63.8274 57.2142 64.0921 56.0599 64.0921H51.5147V57.4488H56.0599C57.2142 57.4488 58.092 57.7617 58.6932 58.3875C59.2944 58.9893 59.595 59.7114 59.595 60.5538V60.9871C59.595 61.974 59.2944 62.7442 58.6932 63.2978ZM68.8806 52.3981H86.0432V57.9503H74.6442V62.7241H85.8267V68.2763H74.6442V78.6746H68.8806V52.3981ZM74.1432 67.7748H85.3257V63.2256H74.1432V57.4488H85.5421V52.8996H69.3816V78.1731H74.1432V67.7748ZM90.3909 52.3981H108.275V57.9503H102.215V73.1224H108.275V78.6746H90.3909V73.1224H96.4511V57.9503H90.3909V52.3981ZM96.9521 57.4488V73.6239H90.8919V78.1731H107.774V73.6239H101.714V57.4488H107.774V52.8996H90.8919V57.4488H96.9521ZM124.995 52.3981H130.759V78.6746H120.511L117.845 58.0443V78.6746H112.081V52.3981H122.33L124.995 73.0284V52.3981ZM124.847 75.7902L121.889 52.8996H112.582V78.1731H117.344V55.2825H117.993L120.951 78.1731H130.258V52.8996H125.496V75.7902H124.847Z" fill="white"/>
</svg>
