<svg width="193" height="80" viewBox="0 0 193 80" fill="none" xmlns="http://www.w3.org/2000/svg">
<path fill-rule="evenodd" clip-rule="evenodd" d="M130.744 48.5759H136.81C158.036 27.2908 189.26 25.1715 192.368 25.0115C192.451 25.0076 192.535 25.0038 192.619 25C192.619 25 192.533 25.003 192.368 25.0115C152.62 26.8627 134.317 43.7882 130.223 47.7668L130.744 48.5759ZM29.3574 33.6907H45.5341C48.5383 33.6907 49.9249 34.4996 49.9248 36.5222V39.816C49.9248 41.8962 48.5381 42.705 45.534 42.705H33.6325L33.2282 43.1095V48.5412H28.7796V34.153L29.3574 33.6907ZM43.4542 40.1624C44.8985 40.1624 45.5341 39.989 45.5341 39.0068L45.5339 37.4466C45.5339 36.4643 44.8407 36.291 43.4541 36.291H33.6325L33.2282 36.6954V39.758L33.6904 40.1624H43.4542ZM61.9996 42.0693L58.1288 36.4065L60.4975 33.5173L71.7633 48.5411H66.6215L64.6572 45.8253L63.7327 45.3052H51.0226L53.218 42.5894H61.7685L61.9996 42.0693ZM109.143 41.6071V45.6519L109.663 45.9986H124.684V48.5411H104.579V38.66H118.214V41.2025H109.605L109.143 41.6071ZM124.857 33.6907H104.579V36.4643H124.857V33.6907ZM98.3393 36.3487H81.9894L81.5271 36.6954V45.3629L81.9894 45.8253H98.2238C98.1082 47.9633 96.8372 48.599 93.544 48.599H81.816C78.1186 48.599 76.9631 47.8478 76.9631 45.074V37.2154C76.9631 34.3841 78.1186 33.6907 81.816 33.6907H93.544C96.7794 33.6907 98.1082 34.2685 98.3393 36.3487ZM5.95905 39.4691H17.8026C21.5002 39.4691 22.7134 40.2203 22.7135 42.9939V45.0164C22.7135 47.8478 21.5002 48.5411 17.8027 48.5411H5.67014C2.49266 48.5411 1.16383 48.0211 0.875 46.0565C0.875 45.9986 1.27934 45.7676 1.27934 45.7676H18.3804L18.6692 45.363V42.705L18.3226 42.3584H6.47897C2.78149 42.3584 1.626 41.6072 1.626 38.8335V37.1577C1.626 34.3264 2.78149 33.633 6.47897 33.633H17.6293C20.2291 33.633 21.6734 34.3263 22.1934 35.7132L21.9624 36.2333H5.95905L5.61239 36.5222V39.0647L5.95905 39.4691ZM130.924 33.6329H137.625L142.536 37.331C140.918 38.1401 139.359 38.949 137.972 39.758L130.577 34.3263L130.924 33.6329ZM150.162 48.5411L143.634 43.8029C144.566 43.0036 145.567 42.2385 146.557 41.4813C146.855 41.253 147.153 41.0255 147.447 40.7981L157.153 47.9055L156.864 48.5411H150.162Z" fill="white"/>
</svg>
